<mxfile host="65bd71144e">
    <diagram id="Tex4-CBb8j3FuUx9Lt-r" name="Page-1">
        <mxGraphModel dx="652" dy="1477" grid="0" gridSize="10" guides="1" tooltips="1" connect="1" arrows="1" fold="1" page="1" pageScale="1" pageWidth="827" pageHeight="1169" background="#000000" math="0" shadow="0">
            <root>
                <mxCell id="0"/>
                <mxCell id="1" parent="0"/>
                <mxCell id="YSe6gQM05ChUfIE0bVmh-7" style="edgeStyle=orthogonalEdgeStyle;rounded=0;orthogonalLoop=1;jettySize=auto;html=1;labelBackgroundColor=#283618;strokeColor=#DDA15E;fontColor=#FEFAE0;endArrow=none;endFill=0;entryX=0;entryY=0.5;entryDx=0;entryDy=0;" parent="1" source="YSe6gQM05ChUfIE0bVmh-1" target="1XEpCb_Z5bo8k1nbY5Bk-2" edge="1">
                    <mxGeometry relative="1" as="geometry">
                        <mxPoint x="414" y="110" as="targetPoint"/>
                    </mxGeometry>
                </mxCell>
                <mxCell id="YSe6gQM05ChUfIE0bVmh-1" value="Bob" style="shape=umlActor;verticalLabelPosition=bottom;verticalAlign=top;html=1;outlineConnect=0;fillColor=#BC6C25;strokeColor=#DDA15E;fontColor=#FEFAE0;" parent="1" vertex="1">
                    <mxGeometry x="200" y="80" width="30" height="60" as="geometry"/>
                </mxCell>
                <mxCell id="YSe6gQM05ChUfIE0bVmh-10" style="edgeStyle=orthogonalEdgeStyle;rounded=0;orthogonalLoop=1;jettySize=auto;html=1;exitX=1;exitY=0.5;exitDx=0;exitDy=0;entryX=0;entryY=0.5;entryDx=0;entryDy=0;labelBackgroundColor=#283618;strokeColor=#DDA15E;fontColor=#FEFAE0;endArrow=classic;endFill=1;dashed=1;startArrow=none;" parent="1" source="1XEpCb_Z5bo8k1nbY5Bk-5" target="1XEpCb_Z5bo8k1nbY5Bk-4" edge="1">
                    <mxGeometry relative="1" as="geometry">
                        <mxPoint x="534" y="110" as="sourcePoint"/>
                        <mxPoint x="605" y="110" as="targetPoint"/>
                    </mxGeometry>
                </mxCell>
                <mxCell id="YSe6gQM05ChUfIE0bVmh-11" value="Choisir plutot la distance ou le temps" style="ellipse;whiteSpace=wrap;html=1;fillColor=#BC6C25;strokeColor=#DDA15E;fontColor=#FEFAE0;" parent="1" vertex="1">
                    <mxGeometry x="346" y="170" width="120" height="80" as="geometry"/>
                </mxCell>
                <mxCell id="YSe6gQM05ChUfIE0bVmh-12" value="Privilégier un type de transport" style="ellipse;whiteSpace=wrap;html=1;fillColor=#BC6C25;strokeColor=#DDA15E;fontColor=#FEFAE0;" parent="1" vertex="1">
                    <mxGeometry x="481" y="170" width="120" height="80" as="geometry"/>
                </mxCell>
                <mxCell id="YSe6gQM05ChUfIE0bVmh-14" value="" style="endArrow=classic;html=1;rounded=0;exitX=0.5;exitY=0;exitDx=0;exitDy=0;labelBackgroundColor=#283618;strokeColor=#DDA15E;fontColor=#FEFAE0;dashed=1;" parent="1" source="YSe6gQM05ChUfIE0bVmh-12" target="1XEpCb_Z5bo8k1nbY5Bk-2" edge="1">
                    <mxGeometry width="50" height="50" relative="1" as="geometry">
                        <mxPoint x="390" y="340" as="sourcePoint"/>
                        <mxPoint x="474" y="140" as="targetPoint"/>
                    </mxGeometry>
                </mxCell>
                <mxCell id="YSe6gQM05ChUfIE0bVmh-15" value="&lt;h1 style=&quot;font-size: 35px;&quot;&gt;&lt;font style=&quot;font-size: 35px;&quot; face=&quot;Verdana&quot; color=&quot;#FF8000&quot;&gt;Hubert Map&lt;/font&gt;&lt;/h1&gt;" style="text;html=1;strokeColor=none;fillColor=none;align=center;verticalAlign=middle;whiteSpace=wrap;rounded=0;sketch=0;fontColor=#FEFAE0;" parent="1" vertex="1">
                    <mxGeometry x="414" y="18" width="341" height="52" as="geometry"/>
                </mxCell>
                <mxCell id="1XEpCb_Z5bo8k1nbY5Bk-2" value="Donner Destination et point de départ" style="ellipse;whiteSpace=wrap;html=1;fillColor=#BC6C25;strokeColor=#DDA15E;fontColor=#FEFAE0;" parent="1" vertex="1">
                    <mxGeometry x="414" y="70" width="120" height="80" as="geometry"/>
                </mxCell>
                <mxCell id="1XEpCb_Z5bo8k1nbY5Bk-4" value="Donne un graphe du trajet à prendre" style="ellipse;whiteSpace=wrap;html=1;fillColor=#BC6C25;strokeColor=#DDA15E;fontColor=#FEFAE0;" parent="1" vertex="1">
                    <mxGeometry x="633" y="70" width="120" height="80" as="geometry"/>
                </mxCell>
                <mxCell id="1XEpCb_Z5bo8k1nbY5Bk-6" value="" style="edgeStyle=orthogonalEdgeStyle;rounded=0;orthogonalLoop=1;jettySize=auto;html=1;exitX=1;exitY=0.5;exitDx=0;exitDy=0;entryX=0;entryY=0.5;entryDx=0;entryDy=0;labelBackgroundColor=#283618;strokeColor=#DDA15E;fontColor=#FEFAE0;endArrow=none;endFill=1;dashed=1;" parent="1" source="1XEpCb_Z5bo8k1nbY5Bk-2" target="1XEpCb_Z5bo8k1nbY5Bk-5" edge="1">
                    <mxGeometry relative="1" as="geometry">
                        <mxPoint x="534" y="110" as="sourcePoint"/>
                        <mxPoint x="633" y="110" as="targetPoint"/>
                    </mxGeometry>
                </mxCell>
                <mxCell id="1XEpCb_Z5bo8k1nbY5Bk-5" value="&amp;lt;&amp;lt;include&amp;gt;&amp;gt;" style="text;html=1;strokeColor=none;fillColor=none;align=center;verticalAlign=middle;whiteSpace=wrap;rounded=0;fontColor=#FEFAE0;" parent="1" vertex="1">
                    <mxGeometry x="550" y="95" width="60" height="30" as="geometry"/>
                </mxCell>
                <mxCell id="1XEpCb_Z5bo8k1nbY5Bk-7" value="&amp;lt;&amp;lt;extend&amp;gt;&amp;gt;" style="text;html=1;strokeColor=none;fillColor=none;align=center;verticalAlign=middle;whiteSpace=wrap;rounded=0;fontColor=#FEFAE0;" parent="1" vertex="1">
                    <mxGeometry x="499" y="140" width="60" height="30" as="geometry"/>
                </mxCell>
                <mxCell id="1XEpCb_Z5bo8k1nbY5Bk-11" value="&amp;lt;&amp;lt;extend&amp;gt;&amp;gt;" style="text;html=1;strokeColor=none;fillColor=none;align=center;verticalAlign=middle;whiteSpace=wrap;rounded=0;fontColor=#FEFAE0;" parent="1" vertex="1">
                    <mxGeometry x="406" y="144" width="60" height="30" as="geometry"/>
                </mxCell>
                <mxCell id="1XEpCb_Z5bo8k1nbY5Bk-13" value="" style="endArrow=classic;html=1;rounded=0;fontColor=#FEFAE0;strokeColor=#DDA15E;endFill=1;dashed=1;" parent="1" source="YSe6gQM05ChUfIE0bVmh-11" target="1XEpCb_Z5bo8k1nbY5Bk-2" edge="1">
                    <mxGeometry width="50" height="50" relative="1" as="geometry">
                        <mxPoint x="373" y="157" as="sourcePoint"/>
                        <mxPoint x="423" y="107" as="targetPoint"/>
                    </mxGeometry>
                </mxCell>
                <mxCell id="1XEpCb_Z5bo8k1nbY5Bk-14" value="" style="rounded=0;whiteSpace=wrap;html=1;fillColor=none;strokeColor=#DDA15E;" parent="1" vertex="1">
                    <mxGeometry x="328" y="22" width="464" height="248" as="geometry"/>
                </mxCell>
            </root>
        </mxGraphModel>
    </diagram>
</mxfile>